<svg id="Layer_1" data-name="Layer 1" xmlns="http://www.w3.org/2000/svg" viewBox="0 0 223.7 325.54"><defs><style>.cls-1{fill:#fff;}</style></defs><title>tower</title><path d="M376.09,567.76h27.73c3,0,6,0,9,0s4.92,1.29,5,4.37c.06,3.3-2,4.59-5.11,4.62H201.53c-.62,0-1.25,0-1.87,0-3.7-.09-5.71-1.67-5.55-4.58.2-3.56,2.58-4.44,5.71-4.43,10.62,0,21.25,0,31.88,0H236c3.11-14.64,6.18-29,9.24-43.41Q263.78,437.16,282.4,350c.71-3.32.34-5.57-2-8.25A33.58,33.58,0,0,1,276.2,303a34,34,0,0,1,63.25,10.51c1.88,11-.92,20.88-8.56,29.12a5.8,5.8,0,0,0-1.68,5.9q17.55,81.86,34.94,163.74l11.49,53.85C375.74,566.54,375.89,567,376.09,567.76Zm-9.89-.11c.75-5.3-2.18-7.56-6.2-9.61-17.12-8.71-34.13-17.64-51.13-26.61a5.44,5.44,0,0,0-5.83,0c-17.2,9.1-34.4,18.23-51.81,26.94-4.24,2.11-5.78,4.85-5.66,9.27ZM264.12,498c13.52,7,26.37,13.68,39.13,20.46a5.1,5.1,0,0,0,5.47,0c11.67-6.22,23.43-12.27,35.16-18.39,1.15-.6,2.25-1.29,3.74-2.15-13.69-9.14-26.86-18-40.1-26.68a3.27,3.27,0,0,0-2.92-.11C291.27,479.85,278,488.72,264.12,498Zm27.33-147.52c-2.47,11.58-4.88,22.64-7.1,33.73-.18.86.75,2.28,1.56,3,5.88,4.83,11.9,9.49,17.77,14.33,1.63,1.34,2.76,1.47,4.47.06,5.86-4.85,11.94-9.44,17.74-14.37a5.57,5.57,0,0,0,1.41-4.36c-.67-4.55-1.78-9-2.76-13.54-1.33-6.16-2.69-12.3-4.12-18.83C310.68,354.55,301.33,354.48,291.45,350.45ZM275.58,439c9.86,6.57,19.27,12.9,28.76,19.09a3.64,3.64,0,0,0,3.25,0c9.5-6.19,18.9-12.52,28.73-19.08l-30.38-24.28ZM306,294.53a25,25,0,1,0,25,25A24.83,24.83,0,0,0,306,294.53Zm-9.75,230.34-37.74-19.65c-3.17,14.92-6.19,29.16-9.39,44.24Zm57.21-19.68-37.72,19.69,47.12,24.58ZM341,446.77l-26.94,17.91,35.81,23.85C346.81,474.13,344,460.74,341,446.77ZM262.05,488.5l35.78-23.82-26.91-17.87C268,460.7,265.13,474.06,262.05,488.5Zm68-93L313.17,409,337,428C334.59,416.68,332.38,406.36,330.06,395.48Zm-48.25.31c-2.27,10.61-4.47,20.91-6.88,32.19l23.78-19c-5.26-4.22-10.11-8.12-15-12C283.28,396.62,282.73,396.36,281.81,395.79Z" transform="translate(-194.1 -251.23)"/><path d="M406.41,319.67c-.28,20.78-6.07,39.83-17.91,57-.63.91-1.25,2.3-2.11,2.52-1.76.44-4.08.9-5.4.09-1.11-.67-1.46-3.13-1.5-4.81,0-1.05,1.11-2.16,1.81-3.18a91.24,91.24,0,0,0-5.73-110.94c-.4-.48-.83-.93-1.19-1.44-1.57-2.21-1.79-4.49.34-6.38,2.3-2.06,4.62-1.49,6.56.68a97.9,97.9,0,0,1,16.81,26.43A102.27,102.27,0,0,1,406.41,319.67Z" transform="translate(-194.1 -251.23)"/><path d="M239.35,255.48a40.28,40.28,0,0,1-2.9,4.7q-22.24,26.47-21.84,61a88.82,88.82,0,0,0,15.51,49.29c.56.83,1.14,1.64,1.68,2.48,1.57,2.45,1.59,4.87-.94,6.56s-4.77.86-6.48-1.52a94.73,94.73,0,0,1-15.49-33q-12.22-50.6,20.9-90.85c1.66-2,3.53-3.91,6.33-2.32C237.36,252.56,238.15,254.08,239.35,255.48Z" transform="translate(-194.1 -251.23)"/><path d="M385.51,319.22c-.21,16.84-4.77,32-14.31,45.6-.94,1.33-2.48,2.84-3.92,3s-3.78-.88-4.24-2a7.7,7.7,0,0,1,.46-5.45c3.24-7.24,7.8-14.06,10-21.58,6.83-23.43,1.95-44.87-13.05-64.06-.46-.59-1-1.14-1.45-1.71-1.85-2.25-2.15-4.66.11-6.65s4.62-1.48,6.6.69c.92,1,1.78,2.09,2.62,3.17A79.4,79.4,0,0,1,385.51,319.22Z" transform="translate(-194.1 -251.23)"/><path d="M226.42,319.08A79.5,79.5,0,0,1,244.59,269c.71-.88,1.36-2.22,2.25-2.43,1.86-.44,4.21-1,5.73-.19,2.28,1.16,2.28,3.67.94,5.88a21.68,21.68,0,0,1-1.87,2.33,70.33,70.33,0,0,0-4.31,84c.28.42.57.83.84,1.25,2.15,3.35,2,5.92-.46,7.53s-4.76.78-7.11-2.62C231.15,351.11,226.58,335.94,226.42,319.08Z" transform="translate(-194.1 -251.23)"/><path d="M270.65,283.22a50.26,50.26,0,0,1-2.61,4.33c-14.58,18.89-15.64,40.24-2.86,60.11,1.67,2.61,2.34,5.07-.4,7.26-2.26,1.8-4.94.85-7.15-2.32-14.88-21.36-13.42-51.45,3.65-70.82a7.93,7.93,0,0,1,5.66-2.22C268.18,279.62,269.34,281.84,270.65,283.22Z" transform="translate(-194.1 -251.23)"/><path d="M364.54,319.27a58.36,58.36,0,0,1-10.27,33.43c-1.77,2.63-3.86,4-6.88,2.39-2.51-1.33-2.64-4.2-.55-7.48,12.6-19.8,11.55-41.42-2.7-59.89-1.19-1.54-2.08-4.21-1.61-6,1-3.55,5.13-3.54,8-.28C359.26,291.26,364.55,305.56,364.54,319.27Z" transform="translate(-194.1 -251.23)"/><path d="M322.74,319.38a16.78,16.78,0,1,1-33.55.27,16.78,16.78,0,0,1,33.55-.27Zm-24.51,0a7.74,7.74,0,1,0,15.48.13,7.74,7.74,0,0,0-15.48-.13Z" transform="translate(-194.1 -251.23)"/><path class="cls-1" d="M298.23,319.36a7.74,7.74,0,0,1,15.48.13,7.74,7.74,0,1,1-15.48-.13Z" transform="translate(-194.1 -251.23)"/></svg>